<svg xmlns="http://www.w3.org/2000/svg" xmlns:xlink="http://www.w3.org/1999/xlink" id="Camada_1" x="0px" y="0px" viewBox="0 0 111 32.3" style="enable-background:new 0 0 111 32.3;" xml:space="preserve"><style type="text/css">	.st0{fill:#D9A773;}</style><rect x="36.7" y="6.1" class="st0" width="15.9" height="2.1"></rect><path class="st0" d="M62.9,22.4c1-0.3,1.3-1.1,1.3-1.9c0-0.6-0.2-1.2-0.8-1.6c-0.5-0.3-1-0.4-1.6-0.4h-1.1v7.7h0.5v-3.6h0.2l2.5,3.6 h0.6L62,22.6C62.1,22.6,62.5,22.6,62.9,22.4 M61.2,22.1V19h0.6c0.3,0,0.9,0,1.2,0.2c0.3,0.2,0.7,0.6,0.7,1.3c0,1-0.7,1.6-1.8,1.6 H61.2z"></path><path class="st0" d="M55.1,18.5h-1.5v7.7h1.5c0.7,0,1.9-0.1,2.8-1.1c0.8-0.8,1.1-1.9,1.1-2.8c0-0.8-0.3-2-1.1-2.8 C56.9,18.6,55.8,18.5,55.1,18.5 M55.1,25.7h-1V19h1c2,0,3.4,1.4,3.4,3.4C58.5,24.4,57.1,25.7,55.1,25.7"></path><polygon class="st0" points="96.9,18.5 96.4,18.5 96.4,26.2 99.1,26.2 99.1,25.7 96.9,25.7 "></polygon><path class="st0" d="M99.6,26.2h0.6l1-2.5h3.3l1,2.5h0.6l-3.2-7.9L99.6,26.2z M101.4,23.2l1.5-3.6l1.4,3.6H101.4z"></path><polygon class="st0" points="66.1,26.2 69.8,26.2 69.8,25.7 66.6,25.7 66.6,22.2 69.7,22.2 69.7,21.8 66.6,21.8 66.6,19 69.8,19  69.8,18.5 66.1,18.5 "></polygon><path class="st0" d="M45.9,26.2h0.6l1-2.5h3.3l1,2.5h0.6l-3.2-7.9L45.9,26.2z M47.7,23.2l1.5-3.6l1.4,3.6H47.7z"></path><path class="st0" d="M40.7,25.4l-3.3-7.1l-0.9,8H37l0.7-6.2l3,6.5c0,0,3-6.5,3-6.5l0.7,6.2h0.5l-0.9-8L40.7,25.4z"></path><polygon class="st0" points="76.6,26.2 80.3,26.2 80.3,25.7 77.1,25.7 77.1,22.2 80.2,22.2 80.2,21.8 77.1,21.8 77.1,19 80.3,19  80.3,18.5 76.6,18.5 "></polygon><polygon class="st0" points="78.2,18.1 79.8,16.6 79.2,16.3 77.8,17.9 "></polygon><path class="st0" d="M84.2,22.4c1-0.3,1.3-1.1,1.3-1.9c0-0.6-0.2-1.2-0.8-1.6c-0.5-0.3-1-0.4-1.6-0.4h-1.1v7.7h0.5v-3.6h0.2l2.5,3.6 h0.6l-2.5-3.6C83.4,22.6,83.8,22.6,84.2,22.4 M82.4,22.1V19h0.6c0.3,0,0.9,0,1.2,0.2c0.3,0.2,0.7,0.6,0.7,1.3c0,1-0.7,1.6-1.8,1.6 H82.4z"></path><path class="st0" d="M72.9,18.5h-1.5v7.7h0.5v-3.7h1c1.3,0,2.2-0.7,2.2-2C75.2,19.2,74.2,18.5,72.9,18.5 M73,22.1h-1V19h0.9 c1.1,0,1.8,0.6,1.8,1.6C74.6,21.5,74,22.1,73,22.1"></path><path class="st0" d="M90.8,18.4c-2.2,0-4,1.8-4,4c0,2.2,1.7,4,4,4c2.2,0,4-1.7,4-4C94.8,20.2,93,18.4,90.8,18.4 M90.8,25.9 c-2,0-3.5-1.5-3.5-3.5c0-2,1.5-3.5,3.5-3.5c2,0,3.5,1.5,3.5,3.5C94.2,24.3,92.8,25.9,90.8,25.9"></path><path class="st0" d="M29.7,6.3C26.9,3.6,23.2,2,19.3,2C15.4,2,11.7,3.6,9,6.3c-2.8,2.8-4.3,6.5-4.3,10.4c0,3.9,1.5,7.6,4.3,10.4 c2.8,2.8,6.5,4.3,10.4,4.3c3.9,0,7.6-1.5,10.4-4.3c2.8-2.8,4.3-6.5,4.3-10.4C34,12.8,32.5,9.1,29.7,6.3 M26.9,4.7 c-0.8,0.1-1.6,0.3-2.3,0.5c-0.3-0.6-0.5-1.3-0.7-1.9C25,3.6,26,4.1,26.9,4.7 M22.9,2.9c0.2,0.6,0.5,1.1,0.7,1.7 c0.1,0.3,0.3,0.5,0.4,0.8c-0.7,0.2-1.3,0.5-2,0.7c-2.9,1.3-5.1,3.3-6.7,5.8c-0.7-0.9-1.1-2-1.3-3.2C15.8,8.5,17.6,8,19,7 c1.4-1,2.6-2.5,3.2-4.2C22.4,2.8,22.7,2.9,22.9,2.9 M14.5,3.4c1.5-0.6,3.1-0.9,4.9-0.9c0.7,0,1.3,0,2,0.1c-0.2,0.5-0.4,1.1-0.7,1.6 C19.2,6.7,16.7,8,14,8.4C13.8,6.7,14,4.9,14.5,3.4 M13.4,3.8c0,0.3-0.1,0.5-0.1,0.8c-0.1,1.3-0.1,2.6,0.1,3.9 c-1.2,0.1-2.4,0.1-3.6,0C9.3,8.3,8.7,8.2,8,8.1C9.5,6.2,11.3,4.8,13.4,3.8 M8,8.1c0.6,0.2,1.2,0.3,1.8,0.4c1.2,0.2,2.4,0.3,3.7,0.2 c0.1,0.2,0.1,0.5,0.2,0.7c0.3,1,0.8,1.9,1.5,2.7c-1,1.7-1.7,3.5-2.1,5.6c-0.1,0.5-0.2,1.1-0.3,1.6c-0.3-2.3-1-4.5-2.1-6.5 c-0.8-1.5-1.9-2.9-3.3-3.9C7.7,8.6,7.9,8.3,8,8.1 M7.5,8.9c1.1,0.9,2,2,2.7,3.2c1.1,1.8,1.8,3.9,2.1,6c0.2,1,0.3,2,0.3,3 c-1.8-2.5-4.5-4.3-7.5-5C5.3,13.4,6.1,10.9,7.5,8.9 M5.1,17c0.3,0.1,0.5,0.1,0.8,0.2c0.8,0.2,1.5,0.5,2.2,0.9c-0.1,0-0.2,0-0.3,0 c-0.8,0.1-1.6,0.4-2.3,0.8c-0.1,0.1-0.2,0.1-0.3,0.2C5.2,18.4,5.1,17.7,5.1,17 M5.6,20.2c0.3-0.5,0.8-0.9,1.3-1.3 c0.1-0.1,0.2-0.1,0.3-0.2c0.1,0,0.3-0.1,0.3-0.2c0.1,0,0.3-0.1,0.3-0.2c0.1,0,0.3-0.1,0.4-0.2c0,0,0.1,0,0.1,0 c2.3,1.2,4.2,3,5.3,5.4c1,2.1,1.3,4.4,1.2,6.7C10.3,28.6,6.8,24.9,5.6,20.2 M14.9,30.2c0,0-0.1,0-0.1,0c0.2-1.8,0.1-3.7-0.4-5.4 c0-0.2-0.2-0.7-0.3-0.8c0-0.2-0.2-0.4-0.2-0.5c-0.1-0.3-0.2-0.6-0.4-0.8c-0.1-0.2-0.3-0.6-0.4-0.8c0-0.1-0.1-0.1-0.1-0.2 c0.2-3.2,1-6.4,2.6-9c0.3,0.3,0.7,0.6,1.1,0.8c0.4,0.2,0.9,0.4,1.4,0.5c-0.9-0.3-1.7-0.8-2.4-1.5c1-1.6,2.3-2.9,3.9-4 c1.5-1,3.1-1.7,4.8-2.2c0.1,0.2,0.2,0.3,0.3,0.5c0.4,0.7,0.6,1.4,0.7,2.2c0,0.3,0,0.6,0,0.9c0.2-0.6,0.2-1.3,0.1-1.9 c-0.1-0.6-0.3-1.1-0.5-1.6C25,6.2,25,6.1,25,6c0,0,0,0,0,0c1-0.3,2.1-0.4,3.1-0.5c3.1,2.4,5.1,6,5.4,10.1c0,0,0,0,0,0 c-2.1,0-4.2,0.5-6.1,1.4c-1.1,0.5-2.2,1.2-3.1,2c-1,0.9-2,1.9-2.8,3c-0.1-0.2-0.3-0.4-0.4-0.6c-1.3-1.8-3.1-3.2-5.1-4.2l-0.4,0.9 c1.5,0.7,2.8,1.6,3.9,2.7c0.1,0.1,0.4,0.4,0.5,0.5c0.1,0.1,0.2,0.3,0.3,0.4c0.2,0.3,0.5,0.6,0.7,1c-0.4,0.6-0.7,1.2-1,1.8 c0.3-0.6,0.7-1.1,1.1-1.7c0.4,0.6,0.7,1.3,1,2c0.1,0.4,0.3,0.8,0.4,1.2c-0.7,0.1-1.4,0.2-2.1,0.4C18.2,27.2,16.3,28.5,14.9,30.2  M22.6,30.3c0,0.1,0,0.2,0,0.3c-1,0.2-2.1,0.4-3.2,0.4c-1.2,0-2.3-0.1-3.4-0.4c0.3-0.4,0.7-0.9,1-1.3c1.5-1.5,3.4-2.7,5.4-3.1 C22.7,27.5,22.8,28.9,22.6,30.3 M23,30.4c0-0.2,0.1-0.4,0.1-0.6c0.2-0.8,0.4-1.6,0.8-2.3c0.7-1.4,1.7-2.6,3.1-3.4 c0.2-0.1,0.4-0.2,0.6-0.3c0.1-0.1,0.4-0.2,0.6-0.2l0.4-0.1c1.2-0.4,2.4-0.5,3.6-0.5C30.3,26.5,27,29.3,23,30.4 M27.6,23.6 c-2.1,0.8-3.7,2.6-4.5,4.6c0-2.1-0.6-4.2-1.7-6c1.2-1.5,2.6-2.7,4.2-3.7c2.3-1.4,5.1-2.1,7.8-2c0,0,0-0.1,0-0.1c0,0.1,0,0.1,0,0.2 c0,2.2-0.5,4.3-1.4,6.2C30.6,22.8,29,23,27.6,23.6"></path><rect x="44.1" y="12.2" class="st0" width="0.8" height="3.9"></rect><path class="st0" d="M60.3,16.1v-3.9h-0.8v0.6c-0.1-0.2-0.3-0.3-0.5-0.4c-0.2-0.1-0.5-0.2-0.8-0.2c-0.3,0-0.6,0.1-0.9,0.2 c-0.3,0.2-0.5,0.4-0.7,0.7c-0.2,0.3-0.2,0.6-0.2,1c0,0.4,0.1,0.7,0.2,1c0.2,0.3,0.4,0.5,0.7,0.7c0.3,0.2,0.6,0.3,0.9,0.3 c0.3,0,0.6-0.1,0.8-0.2c0.2-0.1,0.4-0.3,0.6-0.5v0.6H60.3z M59.3,14.8c-0.1,0.2-0.3,0.3-0.4,0.5c-0.2,0.1-0.4,0.2-0.6,0.2 c-0.2,0-0.4-0.1-0.6-0.2c-0.2-0.1-0.3-0.3-0.4-0.5c-0.1-0.2-0.2-0.4-0.2-0.7c0-0.3,0.1-0.5,0.2-0.7c0.1-0.2,0.3-0.3,0.4-0.4 c0.2-0.1,0.4-0.2,0.6-0.2c0.2,0,0.4,0.1,0.6,0.2c0.2,0.1,0.3,0.3,0.4,0.4c0.1,0.2,0.2,0.4,0.2,0.7S59.4,14.6,59.3,14.8"></path><path class="st0" d="M49.5,16.1v-2.3c0-0.4-0.1-0.7-0.2-0.9c-0.1-0.2-0.3-0.4-0.6-0.6c-0.2-0.1-0.5-0.2-0.8-0.2 c-0.2,0-0.4,0-0.6,0.1c-0.2,0.1-0.4,0.2-0.5,0.4v-0.4H46v3.9h0.8v-2.2c0-0.3,0.1-0.6,0.3-0.8c0.2-0.2,0.4-0.3,0.7-0.3 c0.3,0,0.5,0.1,0.7,0.3c0.2,0.2,0.3,0.5,0.3,0.8v2.2H49.5z"></path><polygon class="st0" points="45.3,10.5 43.7,11.3 43.7,11.9 45.3,11.1 "></polygon><rect x="50.5" y="12.2" class="st0" width="0.8" height="3.9"></rect><path class="st0" d="M51.3,10.8c-0.1-0.1-0.2-0.1-0.4-0.1c-0.1,0-0.3,0-0.4,0.1c-0.1,0.1-0.1,0.2-0.1,0.4c0,0.1,0.1,0.3,0.1,0.4 c0.1,0.1,0.2,0.1,0.4,0.1c0.1,0,0.3,0,0.4-0.1c0.1-0.1,0.1-0.2,0.1-0.4C51.4,11,51.4,10.9,51.3,10.8"></path><path class="st0" d="M55.8,14.8h-0.9c-0.1,0.4-0.5,0.6-0.9,0.6c-0.3,0-0.6-0.1-0.8-0.4c-0.2-0.2-0.3-0.6-0.3-1c0-0.4,0.1-0.7,0.3-1 s0.5-0.3,0.8-0.3c0.2,0,0.4,0.1,0.6,0.2c0.2,0.1,0.3,0.3,0.3,0.4h0.9c-0.1-0.4-0.3-0.7-0.6-1c-0.3-0.2-0.7-0.3-1.2-0.3 c-0.4,0-0.7,0.1-1,0.2c-0.3,0.2-0.5,0.4-0.7,0.7c-0.2,0.3-0.2,0.7-0.2,1c0,0.4,0.1,0.7,0.2,1c0.2,0.3,0.4,0.5,0.7,0.7 c0.3,0.2,0.6,0.2,1,0.2c0.5,0,0.8-0.1,1.1-0.3C55.5,15.5,55.7,15.2,55.8,14.8"></path><rect x="42.3" y="10.9" class="st0" width="0.8" height="5.2"></rect><path class="st0" d="M40.5,15.7c0.4-0.3,0.7-0.6,0.9-1.1h-1c-0.1,0.3-0.3,0.4-0.5,0.6c-0.2,0.1-0.5,0.2-0.8,0.2 c-0.3,0-0.6-0.1-0.9-0.2c-0.3-0.1-0.5-0.4-0.6-0.6c-0.1-0.3-0.2-0.6-0.2-0.9c0-0.4,0.1-0.7,0.2-0.9c0.1-0.3,0.3-0.5,0.6-0.6 c0.3-0.1,0.5-0.2,0.9-0.2c0.3,0,0.6,0.1,0.8,0.2c0.2,0.1,0.4,0.3,0.5,0.6h1c-0.2-0.5-0.5-0.8-0.9-1.1c-0.4-0.3-0.9-0.4-1.4-0.4 c-0.5,0-0.9,0.1-1.3,0.3c-0.4,0.2-0.7,0.5-0.9,0.9c-0.2,0.4-0.3,0.8-0.3,1.3c0,0.5,0.1,0.9,0.3,1.3c0.2,0.4,0.5,0.7,0.9,0.9 c0.4,0.2,0.8,0.3,1.3,0.3C39.6,16.1,40.1,16,40.5,15.7"></path></svg>