<svg width="187" height="52" viewBox="0 0 187 52" fill="none" xmlns="http://www.w3.org/2000/svg">
<path d="M88.6144 9.82043H61.8279V13.2012H88.6144V9.82043Z" fill="white"/>
<path d="M105.967 36.0619C107.651 35.5789 108.157 34.291 108.157 33.0031C108.157 32.0371 107.82 31.0712 106.809 30.4272C105.967 29.9443 105.124 29.7833 104.114 29.7833H102.26V42.1796H103.103V36.3839H103.44L107.651 42.1796H108.662L104.45 36.3839C104.619 36.3839 105.293 36.3839 105.967 36.0619ZM103.103 35.5789V30.5882H104.114C104.619 30.5882 105.63 30.5882 106.135 30.9102C106.641 31.2322 107.314 31.8762 107.314 33.0031C107.314 34.613 106.135 35.5789 104.282 35.5789H103.103Z" fill="white"/>
<path d="M92.8261 29.7833H90.2991V42.1796H92.8261C94.0054 42.1796 96.027 42.0186 97.5433 40.4087C98.891 39.1207 99.3964 37.3498 99.3964 35.9009C99.3964 34.613 98.891 32.6811 97.5433 31.3932C95.8586 29.9443 94.0054 29.7833 92.8261 29.7833ZM92.8261 41.3746H91.1414V30.5882H92.8261C96.1955 30.5882 98.5541 32.8421 98.5541 36.0619C98.5541 39.2817 96.1955 41.3746 92.8261 41.3746Z" fill="white"/>
<path d="M163.246 29.7833H162.404V42.1796H166.952V41.3746H163.246V29.7833Z" fill="white"/>
<path d="M167.795 42.1796H168.805L170.49 38.1548H176.05L177.734 42.1796H178.745L173.354 29.4613L167.795 42.1796ZM170.827 37.3499L173.354 31.5542L175.713 37.3499H170.827Z" fill="white"/>
<path d="M111.358 42.1796H117.591V41.3746H112.2V35.7399H117.423V35.096H112.2V30.5882H117.591V29.7833H111.358V42.1796Z" fill="white"/>
<path d="M77.327 42.1796H78.3378L80.0225 38.1548H85.582L87.2667 42.1796H88.2775L82.8865 29.4613L77.327 42.1796ZM80.3595 37.3499L82.8865 31.5542L85.245 37.3499H80.3595Z" fill="white"/>
<path d="M68.5667 40.8916L63.0072 29.4613L61.491 42.3406H62.3333L63.5126 32.3591L68.5667 42.8235L73.6207 32.3591L74.8 42.3406H75.6424L74.1261 29.4613L68.5667 40.8916Z" fill="white"/>
<path d="M129.047 42.1796H135.28V41.3746H129.889V35.7399H135.112V35.096H129.889V30.5882H135.28V29.7833H129.047V42.1796Z" fill="white"/>
<path d="M131.742 29.1393L134.438 26.7245L133.427 26.2415L131.068 28.8173L131.742 29.1393Z" fill="white"/>
<path d="M141.85 36.0619C143.535 35.5789 144.041 34.291 144.041 33.0031C144.041 32.0371 143.704 31.0712 142.693 30.4272C141.85 29.9443 141.008 29.7833 139.997 29.7833H138.144V42.1796H138.986V36.3839H139.323L143.535 42.1796H144.546L140.334 36.3839C140.503 36.3839 141.177 36.3839 141.85 36.0619ZM138.818 35.5789V30.5882H139.829C140.334 30.5882 141.345 30.5882 141.85 30.9102C142.356 31.2322 143.03 31.8762 143.03 33.0031C143.03 34.613 141.85 35.5789 139.997 35.5789H138.818Z" fill="white"/>
<path d="M122.814 29.7833H120.286V42.1796H121.129V36.2229H122.814C125.004 36.2229 126.52 35.096 126.52 33.0031C126.688 30.9102 125.004 29.7833 122.814 29.7833ZM122.982 35.5789H121.297V30.5882H122.814C124.667 30.5882 125.846 31.5542 125.846 33.1641C125.677 34.613 124.667 35.5789 122.982 35.5789Z" fill="white"/>
<path d="M152.969 29.6223C149.263 29.6223 146.231 32.5201 146.231 36.0619C146.231 39.6037 149.095 42.5015 152.969 42.5015C156.676 42.5015 159.708 39.7647 159.708 36.0619C159.708 32.5201 156.676 29.6223 152.969 29.6223ZM152.969 41.6966C149.6 41.6966 147.073 39.2817 147.073 36.0619C147.073 32.8421 149.6 30.4272 152.969 30.4272C156.339 30.4272 158.866 32.8421 158.866 36.0619C158.697 39.1207 156.339 41.6966 152.969 41.6966Z" fill="white"/>
<path d="M50.0351 10.1424C45.318 5.79567 39.0847 3.21982 32.5144 3.21982C25.9441 3.21982 19.7108 5.79567 15.1622 10.1424C10.445 14.6502 7.91801 20.6068 7.91801 26.8855C7.91801 33.1641 10.445 39.1207 15.1622 43.6285C19.8793 48.1362 26.1126 50.5511 32.6829 50.5511C39.2531 50.5511 45.4865 48.1362 50.2036 43.6285C54.9207 39.1207 57.4477 33.1641 57.4477 26.8855C57.2793 20.6068 54.7522 14.6502 50.0351 10.1424ZM45.318 7.56657C43.9703 7.72756 42.6225 8.04954 41.4432 8.37152C40.9378 7.40558 40.6009 6.27864 40.264 5.3127C42.1171 5.79567 43.8018 6.60062 45.318 7.56657ZM38.5793 4.66873C38.9162 5.63468 39.4216 6.43963 39.7586 7.40558C39.927 7.88855 40.264 8.21053 40.4324 8.6935C39.2531 9.01548 38.2423 9.49846 37.0631 9.82044C32.1775 11.9133 28.4712 15.1331 25.7757 19.1579C24.5964 17.709 23.9225 15.9381 23.5856 14.0062C26.618 13.6842 29.6504 12.8793 32.009 11.2694C34.3676 9.65945 36.3892 7.24459 37.4 4.50774C37.7369 4.50774 38.2423 4.66873 38.5793 4.66873ZM24.4279 5.47369C26.955 4.50774 29.6504 4.02477 32.6829 4.02477C33.8622 4.02477 34.873 4.02477 36.0522 4.18576C35.7153 4.99072 35.3784 5.95666 34.873 6.76161C32.3459 10.7864 28.1342 12.8793 23.5856 13.5232C23.2486 10.7864 23.5856 7.88855 24.4279 5.47369ZM22.5748 6.11765C22.5748 6.60062 22.4063 6.9226 22.4063 7.40558C22.2378 9.49846 22.2378 11.5913 22.5748 13.6842C20.5531 13.8452 18.5315 13.8452 16.5099 13.6842C15.6676 13.3622 14.6568 13.2012 13.4775 13.0403C16.0045 9.98143 19.0369 7.72756 22.5748 6.11765ZM13.4775 13.0403C14.4883 13.3622 15.4991 13.5232 16.5099 13.6842C18.5315 14.0062 20.5531 14.1672 22.7432 14.0062C22.9117 14.3282 22.9117 14.8111 23.0802 15.1331C23.5856 16.743 24.4279 18.192 25.6072 19.4799C23.9225 22.2167 22.7432 25.1146 22.0694 28.4954C21.9009 29.3003 21.7324 30.2663 21.564 31.0712C21.0586 27.3684 19.8793 23.8266 18.0261 20.6068C16.6784 18.192 14.8252 15.9381 12.4667 14.3282C12.9721 13.8452 13.309 13.3622 13.4775 13.0403ZM12.6351 14.3282C14.4883 15.7771 16.0045 17.548 17.1838 19.4799C19.0369 22.3777 20.2162 25.7585 20.7216 29.1393C21.0586 30.7492 21.227 32.3591 21.227 33.969C18.1946 29.9443 13.6459 27.0464 8.59189 25.9195C8.92883 21.5728 10.2766 17.548 12.6351 14.3282ZM8.59189 27.3684C9.09729 27.5294 9.43423 27.5294 9.93964 27.6904C11.2874 28.0124 12.4667 28.4954 13.6459 29.1393C13.4775 29.1393 13.309 29.1393 13.1405 29.1393C11.7928 29.3003 10.445 29.7833 9.26576 30.4272C9.09729 30.5882 8.92883 30.5882 8.76036 30.7492C8.76036 29.6223 8.59189 28.4954 8.59189 27.3684ZM9.43423 32.5201C9.93964 31.7152 10.782 31.0712 11.6243 30.4272C11.7928 30.2663 11.9613 30.2663 12.1297 30.1053C12.2982 30.1053 12.6351 29.9443 12.6351 29.7833C12.8036 29.7833 13.1405 29.6223 13.1405 29.4613C13.309 29.4613 13.6459 29.3003 13.8144 29.1393H13.9829C17.8577 31.0712 21.0586 33.969 22.9117 37.8328C24.5964 41.2136 25.1018 44.9164 24.9333 48.6192C17.3522 46.0433 11.4559 40.0867 9.43423 32.5201ZM25.1018 48.6192H24.9333C25.2703 45.7214 25.1018 42.6625 24.2595 39.9257C24.2595 39.6037 23.9225 38.7988 23.7541 38.6378C23.7541 38.3158 23.4171 37.9938 23.4171 37.8328C23.2486 37.3498 23.0802 36.8669 22.7432 36.5449C22.5748 36.2229 22.2378 35.579 22.0694 35.257C22.0694 35.096 21.9009 35.096 21.9009 34.935C22.2378 29.7833 23.5856 24.6316 26.2811 20.4458C26.7865 20.9288 27.4604 21.4118 28.1342 21.7338C28.8081 22.0557 29.6504 22.3777 30.4928 22.5387C28.9766 22.0557 27.6288 21.2508 26.4495 20.1238C28.1342 17.548 30.3243 15.4551 33.0198 13.6842C35.5468 12.0743 38.2423 10.9474 41.1063 10.1424C41.2748 10.4644 41.4432 10.6254 41.6117 10.9474C42.2856 12.0743 42.6225 13.2012 42.791 14.4892C42.791 14.9721 42.791 15.4551 42.791 15.9381C43.1279 14.9721 43.1279 13.8452 42.9595 12.8793C42.791 11.9133 42.454 11.1084 42.1171 10.3034C42.1171 9.98143 42.1171 9.82044 42.1171 9.65945C43.8018 9.17647 45.655 9.01548 47.3396 8.85449C52.5622 12.7183 55.9315 18.5139 56.4369 25.1146C52.8991 25.1146 49.3613 25.9195 46.1604 27.3684C44.3072 28.1734 42.454 29.3003 40.9378 30.5882C39.2531 32.0372 37.5685 33.6471 36.2207 35.418C36.0522 35.096 35.7153 34.774 35.5468 34.452C33.3568 31.5542 30.3243 29.3003 26.955 27.6904L26.2811 29.1393C28.8081 30.2663 30.9982 31.7152 32.8513 33.4861C33.0198 33.6471 33.5252 34.13 33.6937 34.291C33.8622 34.452 34.0306 34.774 34.1991 34.935C34.536 35.418 35.0414 35.9009 35.3784 36.5449C34.7045 37.5108 34.1991 38.4768 33.6937 39.4427C34.1991 38.4768 34.873 37.6718 35.5468 36.7059C36.2207 37.6718 36.7261 38.7988 37.2315 39.9257C37.4 40.5697 37.7369 41.2136 37.9054 41.8576C36.7261 42.0186 35.5468 42.1796 34.3676 42.5016C30.6613 43.7895 27.4604 45.8824 25.1018 48.6192ZM38.0739 48.7802C38.0739 48.9412 38.0739 49.1022 38.0739 49.2632C36.3892 49.5851 34.536 49.9071 32.6829 49.9071C30.6613 49.9071 28.8081 49.7461 26.955 49.2632C27.4604 48.6192 28.1342 47.8142 28.6396 47.1703C31.1667 44.7554 34.3676 42.8235 37.7369 42.1796C38.2423 44.2725 38.4108 46.5263 38.0739 48.7802ZM38.7477 48.9412C38.7477 48.6192 38.9162 48.2972 38.9162 47.9752C39.2532 46.6873 39.5901 45.3994 40.264 44.2725C41.4432 42.0186 43.1279 40.0867 45.4865 38.7988C45.8234 38.6378 46.1604 38.4768 46.4973 38.3158C46.6658 38.1548 47.1712 37.9938 47.5081 37.9938L48.182 37.8328C50.2036 37.1889 52.2252 37.0279 54.2468 37.0279C51.0459 42.6625 45.4865 47.1703 38.7477 48.9412ZM46.4973 37.9938C42.9595 39.2817 40.264 42.1796 38.9162 45.3994C38.9162 42.0186 37.9054 38.6378 36.0522 35.7399C38.0739 33.3251 40.4324 31.3932 43.1279 29.7833C47.0027 27.5294 51.7198 26.4025 56.2685 26.5635V26.4025C56.2685 26.5635 56.2685 26.5635 56.2685 26.7245C56.2685 30.2663 55.4261 33.6471 53.9099 36.7059C51.5513 36.7059 48.8559 37.0279 46.4973 37.9938Z" fill="white"/>
<path d="M75.6423 19.6409H74.2946V25.9195H75.6423V19.6409Z" fill="white"/>
<path d="M101.586 25.9195V19.6409H100.239V20.6068C100.07 20.2848 99.7333 20.1238 99.3964 19.9629C99.0595 19.8019 98.5541 19.6409 98.0487 19.6409C97.5432 19.6409 97.0378 19.8019 96.5324 19.9629C96.027 20.2848 95.6901 20.6068 95.3532 21.0898C95.0162 21.5728 95.0162 22.0557 95.0162 22.6997C95.0162 23.3437 95.1847 23.8266 95.3532 24.3096C95.6901 24.7926 96.027 25.1146 96.5324 25.4365C97.0378 25.7585 97.5432 25.9195 98.0487 25.9195C98.5541 25.9195 99.0595 25.7585 99.3964 25.5975C99.7333 25.4365 100.07 25.1146 100.407 24.7926V25.7585H101.586V25.9195ZM99.9018 23.8266C99.7333 24.1486 99.3964 24.3096 99.2279 24.6316C98.891 24.7926 98.5541 24.9536 98.2171 24.9536C97.8802 24.9536 97.5432 24.7926 97.2063 24.6316C96.8694 24.4706 96.7009 24.1486 96.5324 23.8266C96.364 23.5046 96.1955 23.1827 96.1955 22.6997C96.1955 22.2167 96.364 21.8947 96.5324 21.5728C96.7009 21.2508 97.0378 21.0898 97.2063 20.9288C97.5432 20.7678 97.8802 20.6068 98.2171 20.6068C98.5541 20.6068 98.891 20.7678 99.2279 20.9288C99.5649 21.0898 99.7333 21.4118 99.9018 21.5728C100.07 21.8947 100.239 22.2167 100.239 22.6997C100.239 23.1827 100.07 23.5046 99.9018 23.8266Z" fill="white"/>
<path d="M83.3919 25.9195V22.2167C83.3919 21.5728 83.2234 21.0898 83.055 20.7678C82.8865 20.4458 82.5496 20.1238 82.0441 19.8019C81.7072 19.6409 81.2018 19.4799 80.6964 19.4799C80.3595 19.4799 80.0225 19.4799 79.6856 19.6409C79.3487 19.8019 79.0117 19.9628 78.8432 20.2848V19.6409H77.4955V25.9195H78.8432V22.3777C78.8432 21.8947 79.0117 21.4118 79.3486 21.0898C79.6856 20.7678 80.0225 20.6068 80.5279 20.6068C81.0333 20.6068 81.3703 20.7678 81.7072 21.0898C82.0441 21.4118 82.2126 21.8947 82.2126 22.3777V25.9195H83.3919Z" fill="white"/>
<path d="M76.3162 16.904L73.6207 18.1919V19.1579L76.3162 17.87V16.904Z" fill="white"/>
<path d="M86.4243 19.6409H85.0766V25.9195H86.4243V19.6409Z" fill="white"/>
<path d="M86.4243 17.387C86.2559 17.226 86.0874 17.226 85.7505 17.226C85.582 17.226 85.245 17.226 85.0766 17.387C84.9081 17.548 84.9081 17.709 84.9081 18.031C84.9081 18.1919 85.0766 18.5139 85.0766 18.6749C85.245 18.8359 85.4135 18.8359 85.7505 18.8359C85.9189 18.8359 86.2559 18.8359 86.4243 18.6749C86.5928 18.5139 86.5928 18.3529 86.5928 18.031C86.5928 17.709 86.5928 17.548 86.4243 17.387Z" fill="white"/>
<path d="M94.0054 23.8266H92.4892C92.3207 24.4706 91.6468 24.7926 90.973 24.7926C90.4676 24.7926 89.9622 24.6316 89.6252 24.1486C89.2883 23.8266 89.1198 23.1827 89.1198 22.5387C89.1198 21.8947 89.2883 21.4118 89.6252 20.9288C89.9622 20.4458 90.4676 20.4458 90.973 20.4458C91.3099 20.4458 91.6468 20.6068 91.9838 20.7678C92.3207 20.9288 92.4892 21.2508 92.4892 21.4118H94.0054C93.8369 20.7678 93.5 20.2848 92.9946 19.8019C92.4892 19.4799 91.8153 19.3189 90.973 19.3189C90.2991 19.3189 89.7937 19.4799 89.2883 19.6409C88.7829 19.9628 88.4459 20.2848 88.109 20.7678C87.7721 21.2508 87.7721 21.8947 87.7721 22.3777C87.7721 23.0217 87.9405 23.5046 88.109 23.9876C88.4459 24.4706 88.7829 24.7926 89.2883 25.1146C89.7937 25.4365 90.2991 25.4365 90.973 25.4365C91.8153 25.4365 92.3207 25.2755 92.8261 24.9536C93.5 24.9536 93.8369 24.4706 94.0054 23.8266Z" fill="white"/>
<path d="M72.6099 17.548H71.2622V25.9195H72.6099V17.548Z" fill="white"/>
<path d="M68.2297 25.2755C68.9036 24.7926 69.409 24.3096 69.7459 23.5046H68.0613C67.8928 23.9876 67.5559 24.1486 67.2189 24.4706C66.882 24.6316 66.3766 24.7926 65.8712 24.7926C65.3658 24.7926 64.8604 24.6316 64.355 24.4706C63.8495 24.3096 63.5126 23.8266 63.3441 23.5046C63.1757 23.0217 63.0072 22.5387 63.0072 22.0557C63.0072 21.4118 63.1757 20.9288 63.3441 20.6068C63.5126 20.1238 63.8495 19.8019 64.355 19.6409C64.8604 19.4799 65.1973 19.3189 65.8712 19.3189C66.3766 19.3189 66.882 19.4799 67.2189 19.6409C67.5559 19.8019 67.8928 20.1238 68.0613 20.6068H69.7459C69.409 19.8019 68.9036 19.3189 68.2297 18.8359C67.5559 18.3529 66.7135 18.192 65.8712 18.192C65.0288 18.192 64.355 18.3529 63.6811 18.6749C63.0072 18.9969 62.5018 19.4799 62.1649 20.1238C61.8279 20.7678 61.6595 21.4118 61.6595 22.2167C61.6595 23.0217 61.8279 23.6656 62.1649 24.3096C62.5018 24.9536 63.0072 25.4365 63.6811 25.7585C64.355 26.0805 65.0288 26.2415 65.8712 26.2415C66.7135 25.9195 67.5559 25.7585 68.2297 25.2755Z" fill="white"/>
</svg>
